<svg width="184" height="174" viewBox="0 0 184 174" fill="none" xmlns="http://www.w3.org/2000/svg">
<path id="Vector 1" d="M0.43934 160.939C-0.146447 161.525 -0.146447 162.475 0.43934 163.061L9.98528 172.607C10.5711 173.192 11.5208 173.192 12.1066 172.607C12.6924 172.021 12.6924 171.071 12.1066 170.485L3.62132 162L12.1066 153.515C12.6924 152.929 12.6924 151.979 12.1066 151.393C11.5208 150.808 10.5711 150.808 9.98528 151.393L0.43934 160.939ZM181.765 1C180.271 1.13179 180.271 1.13154 180.271 1.1319C180.271 1.13284 180.271 1.1338 180.271 1.13567C180.272 1.1394 180.272 1.14556 180.273 1.15414C180.274 1.17129 180.276 1.1981 180.279 1.23441C180.285 1.30702 180.293 1.41762 180.303 1.565C180.324 1.85975 180.351 2.30155 180.379 2.88057C180.435 4.03867 180.493 5.74536 180.499 7.92222C180.512 12.2766 180.317 18.5083 179.487 25.9908C177.825 40.963 173.622 60.9002 163.476 80.8192C153.337 100.725 137.259 120.62 111.81 135.55C86.3564 150.483 51.439 160.5 3.54459 160.5V163.5C51.8608 163.5 87.3264 153.392 113.328 138.138C139.336 122.88 155.786 102.525 166.149 82.1808C176.506 61.8498 180.779 41.537 182.468 26.3217C183.313 18.7104 183.512 12.3641 183.499 7.91372C183.493 5.68823 183.434 3.93594 183.376 2.73564C183.347 2.13546 183.318 1.6732 183.296 1.35871C183.286 1.20146 183.276 1.08114 183.27 0.998978C183.267 0.957899 183.264 0.926359 183.262 0.904513C183.261 0.89359 183.261 0.88509 183.26 0.879032C183.26 0.876004 183.26 0.873296 183.26 0.87178C183.259 0.869687 183.259 0.868206 181.765 1ZM3.54459 160.5H1.5V163.5H3.54459V160.5Z" fill="black"/>
</svg>
